<?xml version="1.0" encoding="UTF-8" standalone="no"?>
<svg
   xmlns:dc="http://purl.org/dc/elements/1.1/"
   xmlns:cc="http://creativecommons.org/ns#"
   xmlns:rdf="http://www.w3.org/1999/02/22-rdf-syntax-ns#"
   xmlns:svg="http://www.w3.org/2000/svg"
   xmlns="http://www.w3.org/2000/svg"
   xmlns:xlink="http://www.w3.org/1999/xlink"
   xmlns:sodipodi="http://sodipodi.sourceforge.net/DTD/sodipodi-0.dtd"
   xmlns:inkscape="http://www.inkscape.org/namespaces/inkscape"
   id="svg3642"
   height="148"
   width="148"
   version="1.0"
   sodipodi:docname="panel-background.svg"
   inkscape:version="0.92.3 (2405546, 2018-03-11)">
  <sodipodi:namedview
     pagecolor="#ffffff"
     bordercolor="#666666"
     borderopacity="1"
     objecttolerance="10"
     gridtolerance="10"
     guidetolerance="10"
     inkscape:pageopacity="0"
     inkscape:pageshadow="2"
     inkscape:window-width="1280"
     inkscape:window-height="980"
     id="namedview74"
     showgrid="false"
     inkscape:zoom="12.0625"
     inkscape:cx="67.301631"
     inkscape:cy="81.199154"
     inkscape:window-x="0"
     inkscape:window-y="0"
     inkscape:window-maximized="1"
     inkscape:current-layer="svg3642" />
  <metadata
     id="metadata320">
    <rdf:RDF>
      <cc:Work
         rdf:about="">
        <dc:format>image/svg+xml</dc:format>
        <dc:type
           rdf:resource="http://purl.org/dc/dcmitype/StillImage" />
        <dc:title />
      </cc:Work>
    </rdf:RDF>
  </metadata>
  <defs
     id="defs3644">
    <color-profile
       id="color-profile4"
       xlink:href="/usr/share/color/icc/colord/sRGB.icc"
       name="sRGB" />
    <linearGradient
       id="linearGradient58443">
      <stop
         offset="0"
         style="stop-color:#ffffff;stop-opacity:1"
         id="stop58445" />
      <stop
         offset="1"
         style="stop-color:#ffffff;stop-opacity:0"
         id="stop58447" />
    </linearGradient>
    <linearGradient
       id="linearGradient58435">
      <stop
         offset="0"
         style="stop-color:#ffffff;stop-opacity:1"
         id="stop58437" />
      <stop
         offset="1"
         style="stop-color:#ffffff;stop-opacity:0"
         id="stop58439" />
    </linearGradient>
    <linearGradient
       id="linearGradient58373">
      <stop
         offset="0"
         style="stop-color:#ffffff;stop-opacity:0"
         id="stop58375" />
      <stop
         offset="0.34950253"
         style="stop-color:#ffffff;stop-opacity:0.2345679"
         id="stop58377" />
      <stop
         offset="1"
         style="stop-color:#ffffff;stop-opacity:1"
         id="stop58379" />
    </linearGradient>
    <linearGradient
       gradientUnits="userSpaceOnUse"
       xlink:href="#linearGradient58373"
       id="linearGradient57949"
       y2="17.999996"
       x2="82.764702"
       y1="30.583679"
       x1="82.764702" />
    <linearGradient
       gradientTransform="matrix(0.98077914,0,0,1,0.74852944,0)"
       gradientUnits="userSpaceOnUse"
       xlink:href="#linearGradient58373"
       id="linearGradient58021"
       y2="129"
       x2="62.999325"
       y1="141.59375"
       x1="62.999325" />
    <linearGradient
       gradientTransform="matrix(1.2710991,0,0,1,-17.360322,0)"
       gradientUnits="userSpaceOnUse"
       xlink:href="#linearGradient58373"
       id="linearGradient58029"
       y2="129"
       x2="63.000675"
       y1="141.59375"
       x1="63.000675" />
    <linearGradient
       gradientUnits="userSpaceOnUse"
       xlink:href="#linearGradient58435"
       id="linearGradient58441"
       y2="128.68617"
       x2="2.2662997"
       y1="127.36319"
       x1="4.0006747" />
    <linearGradient
       gradientUnits="userSpaceOnUse"
       xlink:href="#linearGradient58443"
       id="linearGradient58449"
       y2="128.70541"
       x2="2.3041453"
       y1="127.2552"
       x1="3.9993255" />
  </defs>
  <g
     id="bottom"
     transform="matrix(0.5517241,0,0,-2,51.333513,340.91527)"
     style="fill:#cccccc;fill-opacity:1">
    <path
       style="opacity:0;fill:#cccccc;fill-opacity:1;fill-rule:nonzero;stroke:none"
       id="path7633"
       d="m 4.0000482,126.50014 0,2.49986 57.9999508,0 0,-2.49986 c -0.02169,-8e-4 -0.04064,0 -0.0625,0 l -57.8749508,0 c -0.021861,0 -0.040806,-8e-4 -0.0625,0 z" />
    <path
       style="opacity:0.4;fill:#cccccc;fill-opacity:1;fill-rule:nonzero;stroke:none"
       id="path7635"
       d="m 3.9999993,126.50007 0,0.49993 57.9999997,0 0,-0.49993 c -0.02169,-1.6e-4 -0.04064,0 -0.0625,0 l -57.8749997,0 c -0.021861,0 -0.040806,-1.6e-4 -0.0625,0 z" />
  </g>
  <g
     id="top"
     transform="matrix(0.5517241,0,0,2,51.332191,-207.08473)"
     style="fill:#cccccc;fill-opacity:1">
    <path
       style="opacity:0.45;fill:#cccccc;fill-opacity:1;fill-rule:nonzero;stroke:none"
       id="path4224"
       d="m 3.9999993,127.5 0.00244,1.5 58.0000037,0 -0.0024,-1.5 c -0.02169,-3.8e-4 -0.04064,0 -0.0625,0 l -57.8749997,0 c -0.021861,0 -0.040806,-3.8e-4 -0.0625,0 z" />
    <path
       style="opacity:0.4;fill:#cccccc;fill-opacity:1;fill-rule:nonzero;stroke:none"
       id="path5601"
       d="m 3.9999993,126.50007 0,0.49993 57.9999997,0 0,-0.49993 c -0.02169,-1.6e-4 -0.04064,0 -0.0625,0 l -57.8749997,0 c -0.021861,0 -0.040806,-1.6e-4 -0.0625,0 z" />
    <path
       style="opacity:0.5;fill:#cccccc;fill-opacity:1;fill-rule:nonzero;stroke:none"
       id="path57970"
       d="m 4.0024443,127.00007 0,0.49993 57.9999997,0 0,-0.49993 c -0.02169,-1.6e-4 -0.04064,0 -0.0625,0 l -57.8749997,0 c -0.021861,0 -0.040806,-1.6e-4 -0.0625,0 z" />
  </g>
  <g
     style="opacity:0.45;fill:#cccccc;fill-opacity:1"
     id="center"
     transform="matrix(0.74408444,0,0,2.4635078,8.8953702,6.5721386)">
    <path
       style="fill:#cccccc;fill-opacity:1;stroke:none"
       id="path11378"
       d="m 60,17.999997 0,12.989608 43,0 0,-12.989608 -43,0 z" />
  </g>
  <g
     id="topright"
     transform="matrix(-2,0,0,2,93.539087,-207.08473)"
     style="fill:#cccccc;fill-opacity:1">
    <path
       style="opacity:0.45;fill:#cccccc;fill-opacity:1;fill-rule:nonzero;stroke:none"
       id="path5643"
       d="m 3.9993255,127 c -1.2449682,0 -2,1.26056 -2,2 0.8615686,0 1.1917141,0 2,0 z" />
    <path
       style="opacity:0.4;fill:#cccccc;fill-opacity:1;fill-rule:nonzero;stroke:none"
       id="path4228"
       d="m 4,126.5 c -1.3641931,0.042 -2.4579894,1.13581 -2.5,2.5 l 0.499801,0 c 0,-0.97656 0.9995245,-2 2.000199,-2.0002 z" />
    <path
       style="fill:#cccccc;fill-opacity:1;fill-rule:nonzero;stroke:none"
       id="path5645"
       d="m 3,129 0.3721796,0 c 0.1787414,0 0.2250047,0 0.6271459,0 C 3.3054901,129 3.6325874,129 3,129 Z" />
    <path
       style="opacity:0.00000001;fill:#cccccc;fill-opacity:1;fill-rule:nonzero;stroke:none"
       id="path57972-7"
       d="m 3.9993255,127 c -1.0619588,0 -2,1 -2,1.9998 l 0.5,0 c 0,-0.78117 0.671875,-1.5 1.5,-1.5 z" />
  </g>
  <rect
     style="opacity:0.875;fill:#008080;fill-opacity:1;stroke:none"
     id="hint-stretch-borders"
     y="27.24255"
     x="18.522581"
     height="4.375"
     width="5" />
  <rect
     style="opacity:0.875;fill:#cccccc;fill-opacity:1;stroke:none"
     id="hint-top-margin"
     y="45.915268"
     x="67.539085"
     height="4"
     width="4" />
  <g
     id="left"
     transform="matrix(-2.0385084,0,0,2.4615385,180.02288,-266.6232)"
     style="fill:#cccccc;fill-opacity:1">
    <path
       style="opacity:0.45;fill:#cccccc;fill-opacity:1;fill-rule:nonzero;stroke:none"
       id="path5678"
       d="m 62.046563,129 0,13 1.96222,0 c 6.55e-4,-0.0217 0,-0.0406 0,-0.0625 0,-4.31069 -10e-7,-8.63224 -10e-7,-12.9375 z" />
    <path
       style="opacity:0.4;fill:#cccccc;fill-opacity:1;fill-rule:nonzero;stroke:none"
       id="path4250"
       d="m 64.008782,129 0,13 0.491218,0 c 1.67e-4,-0.0217 0,-0.0406 0,-0.0625 l 0,-12.875 c 0,-0.0219 1.67e-4,-0.0408 0,-0.0625 z" />
  </g>
  <g
     style="display:none"
     id="g4240"
     transform="translate(-1325.666,-764.10902)" />
  <g
     style="display:inline"
     id="g4242"
     transform="translate(-1325.666,-764.10902)" />
  <g
     style="display:none"
     id="g4244"
     transform="translate(1103.395,-2243.9884)" />
  <g
     style="display:inline"
     id="g4246"
     transform="translate(1103.395,-2243.9884)" />
  <g
     id="g4248"
     transform="translate(1149.3728,-1275.1257)" />
  <g
     id="g4250"
     transform="translate(2935.6633,-891.66766)" />
  <g
     id="g4252"
     transform="translate(4040.4885,-1769.937)" />
  <g
     id="g4254"
     transform="translate(1642.6188,-1785.2842)" />
  <g
     id="g4256"
     transform="translate(291.80131,-456.67258)" />
  <g
     id="g4258"
     transform="translate(1396.6265,-1334.9419)" />
  <g
     id="g4260"
     transform="translate(-1001.2432,-1350.2891)" />
  <g
     id="g4262"
     transform="translate(2438.3013,-464.67258)" />
  <g
     id="g4264"
     transform="translate(3543.1265,-1342.9419)" />
  <g
     id="g4266"
     transform="translate(1145.2568,-1358.2891)" />
  <g
     style="opacity:0.45945943"
     id="g4268"
     transform="matrix(1,0,0,-1,-25.66599,-3.71558)" />
  <text
     style="font-size:14px;font-style:normal;font-variant:normal;font-weight:bold;font-stretch:normal;text-align:justify;line-height:125%;writing-mode:lr-tb;text-anchor:start;fill:#000000;fill-opacity:1;stroke:none;font-family:Gill Sans"
     xml:space="preserve"
     id="text4270"
     y="-506.74683"
     x="198.334"><tspan
       id="tspan4272"
       y="-506.74683"
       x="198.334" /></text>
  <rect
     style="opacity:0.875;fill:#cccccc;fill-opacity:1;stroke:none"
     id="hint-left-margin"
     y="64.915268"
     x="48.539085"
     height="4"
     width="4" />
  <g
     id="topleft"
     transform="matrix(2,0,0,2,45.539087,-207.08473)"
     style="fill:#cccccc;fill-opacity:1">
    <path
       style="opacity:0.45;fill:#cccccc;fill-opacity:1;fill-rule:nonzero;stroke:none"
       id="path5653"
       d="m 4.0006745,127 c -1.1793316,0 -2,1.11251 -2,2 1.0884241,0 1.3435105,0 2,0 z" />
    <path
       style="opacity:0.4;fill:#cccccc;fill-opacity:1;fill-rule:nonzero;stroke:none"
       id="path5651"
       d="m 4,126.5 c -1.3641931,0.042 -2.4579894,1.13581 -2.5,2.5 l 0.499801,0 c 0,-0.97656 0.9650427,-2.0002 2.000199,-2.0002 L 4,126.5 Z" />
    <path
       style="opacity:0;fill:#cccccc;fill-opacity:1;fill-rule:nonzero;stroke:none"
       id="path57972"
       d="m 4.0006745,127.0002 c -1.0913545,0.0336 -1.9663915,0.90856 -2,1.9998 l 0.5,0 c 0,-0.78117 0.671875,-1.5 1.5,-1.5 z" />
  </g>
  <g
     id="right"
     transform="matrix(2.0689545,0,0,2.4615385,-42.908481,-266.6232)"
     style="fill:#cccccc;fill-opacity:1">
    <path
       style="opacity:0.4;fill:#cccccc;fill-opacity:1;fill-rule:nonzero;stroke:none"
       id="path5686"
       d="m 64.017317,129 0,13 0.482683,0 c 1.67e-4,-0.0217 0,-0.0406 0,-0.0625 l 0,-12.875 c 0,-0.0219 1.67e-4,-0.0408 0,-0.0625 z" />
    <path
       style="opacity:0.45;fill:#cccccc;fill-opacity:1;fill-rule:nonzero;stroke:none"
       id="path5688"
       d="m 62.084229,129 0,13 1.933088,0 0,-13 z" />
  </g>
  <rect
     style="opacity:0.875;fill:#cccccc;fill-opacity:1;stroke:none"
     id="hint-right-margin"
     y="64.915268"
     x="86.539085"
     height="4"
     width="4" />
  <rect
     style="opacity:0.875;fill:#cccccc;fill-opacity:1;stroke:none"
     id="hint-bottom-margin"
     y="82.915268"
     x="67.539101"
     height="4.9998927"
     width="3.9999967" />
  <g
     id="bottomright"
     transform="matrix(-2,0,0,-2,93.540436,340.91487)"
     style="fill:#cccccc;fill-opacity:1">
    <path
       style="opacity:0;fill:#cccccc;fill-opacity:1;fill-rule:nonzero;stroke:none"
       id="path7617"
       d="m 4,126.5 c -1.5,0 -2.5,1.40178 -2.5,2.5 l 1.5,0 c 0.3716772,-2e-4 0.3690582,-2e-4 1,-2e-4 z" />
    <path
       style="opacity:0.4;fill:#cccccc;fill-opacity:1;fill-rule:nonzero;stroke:none"
       id="path7619"
       d="m 4,126.5 c -1.3641931,0.042 -2.4579894,1.13581 -2.5,2.5 l 0.499801,0 c 0,-0.97656 0.9650427,-2.0002 2.000199,-2.0002 L 4,126.5 Z" />
  </g>
  <g
     id="bottomleft"
     transform="matrix(2,0,0,-2,45.540436,340.91527)"
     style="fill:#cccccc;fill-opacity:1">
    <path
       style="opacity:0;fill:#cccccc;fill-opacity:1;fill-rule:nonzero;stroke:none"
       id="path7625"
       d="m 4,126.5 c -1.5,0 -2.5,1.40178 -2.5,2.5 l 1.5,0 c 0.6068467,0 0.3690582,0 1,0 z" />
    <path
       style="opacity:0.4;fill:#cccccc;fill-opacity:1;fill-rule:nonzero;stroke:none"
       id="path7627"
       d="m 4,126.5 c -1.3641931,0.042 -2.4579894,1.13581 -2.5,2.5 l 0.499801,0 c 0,-0.97656 0.9650427,-2.0002 2.000199,-2.0002 L 4,126.5 Z" />
  </g>
</svg>
